<?xml version="1.0" encoding="UTF-8"?>
<!-- Category SVG Icons -->
<svg xmlns="http://www.w3.org/2000/svg" style="display: none">
    <!-- Martini Glass Icon -->
    <symbol id="martini-glass-empty-light" fill="currentColor" viewBox="0 0 512 512">
        <path d="M33 32c-.5 0-1 .4-1 1c0 .3 .1 .5 .3 .7L256 257.4 479.7 33.7c.2-.2 .3-.4 .3-.7c0-.5-.4-1-1-1L33 32zM240 286.6L9.7 56.3C3.5 50.1 0 41.7 0 33C0 14.8 14.8 0 33 0L479 0c18.2 0 33 14.8 33 33c0 8.7-3.5 17.1-9.7 23.3L272 286.6 272 480l96 0c8.8 0 16 7.2 16 16s-7.2 16-16 16l-112 0-112 0c-8.8 0-16-7.2-16-16s7.2-16 16-16l96 0 0-193.4z"/>
    </symbol>

    <!-- Heart Pulse Icon -->
    <symbol id="heart-pulse-thin" fill="currentColor" viewBox="0 0 512 512">
        <path d="M393.6 57.7C451.9 65.3 496 115 496 173.6c0 30.3-11.7 59.3-32.8 81.1L462 256l-90.2 0c-9.1 0-17.4-5.1-21.5-13.3l-23.2-46.3c-1.4-2.7-4.1-4.4-7.2-4.4s-5.8 1.7-7.2 4.4L256.4 309.4 191.3 164.7c-1.3-2.9-4.2-4.8-7.4-4.7s-6 2-7.3 4.9l-31.8 76.3c-3.7 8.9-12.5 14.8-22.2 14.8l-72.6 0-1.3-1.3C27.8 232.9 16 203.8 16 173.5C16 114.9 60.1 65.3 118.3 57.7c42.9-5.6 85.8 12.6 111.2 47.6l20 27.5c1.5 2.1 3.9 3.3 6.5 3.3s5-1.2 6.5-3.3l20-27.5c25.4-34.9 68.3-53.2 111.2-47.6zM464 272l4.8 0 6-6.2C498.6 241.1 512 208 512 173.6c0-66.8-50.2-123.2-116.3-131.8c-48.6-6.3-97.3 14.3-126.2 54L256 114.4 242.5 95.8c-28.9-39.7-77.6-60.4-126.2-54C50.2 50.4 0 106.8 0 173.5c0 34.5 13.4 67.6 37.4 92.3l6 6.2 3.6 0c0 0 0 0 0 0l75.7 0c16.1 0 30.7-9.7 36.9-24.6l24.7-59.3 64.4 143.2c1.3 2.8 4 4.7 7.1 4.7s5.9-1.7 7.3-4.4L320 217.9l16 32c6.8 13.6 20.6 22.1 35.8 22.1l92.2 0s0 0 0 0zM74.3 304L236.5 471.6c5.2 5.4 12.4 8.4 19.9 8.4c7.5 0 14.7-3 19.9-8.5L437.9 304l-22.2 0-151 156.4c-2.2 2.3-5.2 3.6-8.4 3.6s-6.2-1.3-8.4-3.6L96.6 304l-22.3 0z"/>
    </symbol>

    <!-- Newspaper Icon -->
    <symbol id="newspaper-light" fill="currentColor" viewBox="0 0 512 512">
        <path d="M160 64c-17.7 0-32 14.3-32 32l0 320c0 11.7-3.1 22.6-8.6 32L432 448c26.5 0 48-21.5 48-48l0-304c0-17.7-14.3-32-32-32L160 64zM64 480c-35.3 0-64-28.7-64-64L0 160c0-35.3 28.7-64 64-64l0 32c-17.7 0-32 14.3-32 32l0 256c0 17.7 14.3 32 32 32s32-14.3 32-32L96 96c0-35.3 28.7-64 64-64l288 0c35.3 0 64 28.7 64 64l0 304c0 44.2-35.8 80-80 80L64 480zM384 112c0-8.8 7.2-16 16-16l32 0c8.8 0 16 7.2 16 16s-7.2 16-16 16l-32 0c-8.8 0-16-7.2-16-16zm0 64c0-8.8 7.2-16 16-16l32 0c8.8 0 16 7.2 16 16s-7.2 16-16 16l-32 0c-8.8 0-16-7.2-16-16zm0 64c0-8.8 7.2-16 16-16l32 0c8.8 0 16 7.2 16 16s-7.2 16-16 16l-32 0c-8.8 0-16-7.2-16-16zM160 304c0-8.8 7.2-16 16-16l256 0c8.8 0 16 7.2 16 16s-7.2 16-16 16l-256 0c-8.8 0-16-7.2-16-16zm0 64c0-8.8 7.2-16 16-16l256 0c8.8 0 16 7.2 16 16s-7.2 16-16 16l-256 0c-8.8 0-16-7.2-16-16zm32-144l128 0 0-96-128 0 0 96zM160 120c0-13.3 10.7-24 24-24l144 0c13.3 0 24 10.7 24 24l0 112c0 13.3-10.7 24-24 24l-144 0c-13.3 0-24-10.7-24-24l0-112z"/>
    </symbol>

    <!-- Ball Pile Icon -->
    <symbol id="ballpile-light" fill="currentColor" viewBox="0 0 512 512">
        <path d="M352 96A64 64 0 1 0 224 96a64 64 0 1 0 128 0zm-35.4 91.7c-9 2.8-18.6 4.3-28.6 4.3s-19.5-1.5-28.6-4.3C277.1 205.1 288 229.3 288 256s-10.9 50.9-28.6 68.3c9-2.8 18.6-4.3 28.6-4.3s19.5 1.5 28.6 4.3C298.9 306.9 288 282.7 288 256s10.9-50.9 28.6-68.3zM384 352c-9.9 0-19.5-1.5-28.6-4.3C373.1 365.1 384 389.3 384 416c0 53-43 96-96 96s-96-43-96-96c0-26.7 10.9-50.9 28.6-68.3c-9 2.8-18.6 4.3-28.6 4.3s-19.5-1.5-28.6-4.3C181.1 365.1 192 389.3 192 416c0 53-43 96-96 96s-96-43-96-96s43-96 96-96c9.9 0 19.5 1.5 28.6 4.3C106.9 306.9 96 282.7 96 256c0-53 43-96 96-96c9.9 0 19.5 1.5 28.6 4.3C202.9 146.9 192 122.7 192 96c0-53 43-96 96-96s96 43 96 96c0 26.7-10.9 50.9-28.6 68.3c9-2.8 18.6-4.3 28.6-4.3c53 0 96 43 96 96c0 26.7-10.9 50.9-28.6 68.3c9-2.8 18.6-4.3 28.6-4.3c53 0 96 43 96 96s-43 96-96 96s-96-43-96-96c0-26.7 10.9-50.9 28.6-68.3c-9 2.8-18.6 4.3-28.6 4.3zM256 256a64 64 0 1 0 -128 0 64 64 0 1 0 128 0zM160 416A64 64 0 1 0 32 416a64 64 0 1 0 128 0zm224-96a64 64 0 1 0 0-128 64 64 0 1 0 0 128zM288 480a64 64 0 1 0 0-128 64 64 0 1 0 0 128zm256-64a64 64 0 1 0 -128 0 64 64 0 1 0 128 0z"/>
    </symbol>

    <!-- Paintbrush Pencil Icon -->
    <symbol id="paintbrushpencil-light" fill="currentColor" viewBox="0 0 512 512">
        <path d="M534.5 86.6L369.9 251.3 324.6 206 489.3 41.4c12.5-12.5 32.8-12.5 45.3 0s12.5 32.8 0 45.3zM347.3 273.9l-36.6 36.6-36.1 36.1s0 0 0 0l-4.6 4.6L224.6 306l40.7-40.7s0 0 0 0L302 228.6l45.3 45.3zM176 320c6.9 0 13.5 .9 19.9 2.5l57.7 57.7c1.6 6.3 2.5 13 2.5 19.9c0 44.2-35.8 80-80 80L36.8 480C58 480 74.3 468.5 84 455.1c9.5-13.1 14.2-30 12.5-46.7c-.3-2.7-.4-5.5-.4-8.3c0-44.2 35.8-80 80-80zm110.3 60.2L557.2 109.3c25-25 25-65.5 0-90.5s-65.5-25-90.5 0l-271 271c-6.4-1.1-13-1.7-19.7-1.7c-61.9 0-112 50.1-112 112c0 3.9 .2 7.8 .6 11.6C66.4 429.1 54.4 448 36.8 448L32 448c-17.7 0-32 14.3-32 32s14.3 32 32 32l144 0c61.9 0 112-50.1 112-112c0-6.8-.6-13.4-1.7-19.8zM170.8 17C148.9-4.9 113.5-4.9 91.6 17L49 59.6c-21.9 21.9-21.9 57.3 0 79.2L166.5 256.3c3.1-.2 6.3-.3 9.5-.3c2.7 0 5.3 .1 7.9 .2l13.9-13.9L149 193.6 225.6 117l48.8 48.8L297 143.2 170.8 17zM410.1 301.6l50.8 50.8c7.6 7.6 13.1 16.9 16.1 27.2l27.3 92.8-92.8-27.3c-10.3-3-19.6-8.6-27.2-16.1l-50.8-50.8-13.8 13.8c.1 2.7 .2 5.4 .2 8.1c0 3.2-.1 6.4-.3 9.5l42 42c11.4 11.4 25.4 19.7 40.8 24.2l121 35.6c5.6 1.7 11.7 .1 15.8-4s5.7-10.2 4-15.8l-35.6-121c-4.5-15.4-12.9-29.4-24.2-40.8l-50.8-50.8-22.6 22.6zM114.2 39.6c9.4-9.4 24.6-9.4 33.9 0L203 94.4 126.4 171 71.6 116.2c-9.4-9.4-9.4-24.6 0-33.9l42.6-42.6z"/>
    </symbol>

    <!-- Comment Icon -->
    <symbol id="comment-light" fill="currentColor" viewBox="0 0 512 512">
        <path d="M94.1 362.8L86.9 382 68.6 430.8l88.5-26.6 9.3-2.8 9.2 2.8c24.9 7.6 51.9 11.7 80.3 11.7c130.2 0 224-84.7 224-176s-93.8-176-224-176S32 148.7 32 240c0 39.9 17.1 77.6 47.6 108.2l14.5 14.6zM54.5 468.4L16 480l14.1-37.6 26.8-71.5C21.3 335.1 0 289.6 0 240C0 125.1 114.6 32 256 32s256 93.1 256 208s-114.6 208-256 208c-31.5 0-61.7-4.6-89.6-13.1L54.5 468.4z"/>
    </symbol>

    <!-- Lightbulb Gear Icon -->
    <symbol id="lightbulbgear-light" fill="currentColor" viewBox="0 0 512 512">
        <path d="M336 176c0 13.7-1.9 27-5.5 39.5c3.3 1 6.5 2.3 9.5 4l0-.9c0-17.8 10.2-35.6 28-43.3C367.6 78.4 289 0 192 0C94.8 0 16 78.8 16 176c0 37.3 11.6 71.9 31.4 100.3c5 7.2 10.2 14.3 15.4 21.4c0 0 0 0 0 0s0 0 0 0s0 0 0 0c12.3 16.8 24.6 33.7 34.5 51.8c5.9 10.8 9.6 22.5 11.8 34.5l32.4 0c-2.5-16.6-7.3-33.7-16.2-49.9c-10.9-20-25.3-39.7-38-57.1c0 0 0 0 0 0c-4.9-6.7-9.5-13-13.6-19C57.5 234.8 48 206.6 48 176C48 96.5 112.5 32 192 32s144 64.5 144 144zM258.5 443c-5.1-8.8-9.3-17.8-12.8-27l-123 0c-5.9 0-10.7 4.8-10.7 10.7l0 5.3c0 44.2 35.8 80 80 80c35.2 0 65.1-22.8 75.8-54.4c-3.3-4.7-6.4-9.5-9.4-14.6zM192 96c8.8 0 16-7.2 16-16s-7.2-16-16-16C130.1 64 80 114.1 80 176c0 8.8 7.2 16 16 16s16-7.2 16-16c0-44.2 35.8-80 80-80zM146.7 448l90.5 0c-6.6 18.6-24.4 32-45.3 32s-38.7-13.4-45.3-32zM399.3 239.8l33.7 0c3 16.6 13.9 29.5 26.5 36.7c12.9 7.4 30 9.9 45.9 3.6l17.2 30.5c-12.8 11.4-18.5 27.7-18.5 42.4s5.7 31 18.5 42.4L505.3 426c-15.9-6.3-32.9-3.7-45.9 3.6c-12.6 7.2-23.5 20.2-26.5 36.7l-33.7 0c-3.1-16.6-14-29.5-26.6-36.7c-13-7.4-30-9.9-46-3.7l-17.2-30.5c12.8-11.4 18.5-27.7 18.5-42.4s-5.7-31-18.5-42.4l17.2-30.5c15.9 6.3 33 3.7 46-3.7c12.6-7.2 23.6-20.1 26.6-36.7zm43.5-32l-53.4 0c-11.7 0-21.3 9.5-21.3 21.3l0 1.4c0 7.6-4.6 14.4-11.3 18.2c-6.6 3.7-14.7 4.2-21.2 .3l-1.6-1c-10.7-6.3-24.4-2.6-30.5 8.2L277 303.1c-5.7 10.2-2.3 23.1 7.8 29c7.3 4.3 11.2 12.6 11.2 21s-3.9 16.7-11.2 21c-10 5.9-13.5 18.8-7.8 29L303.5 450c6.1 10.8 19.9 14.5 30.5 8.2l1.6-1c6.5-3.9 14.6-3.4 21.2 .3c6.6 3.8 11.3 10.6 11.3 18.2l0 1.4c0 11.7 9.5 21.3 21.3 21.3l53.4 0c11.8 0 21.4-9.6 21.4-21.4l0-1.6c0-7.5 4.6-14.2 11.1-18c6.5-3.7 14.5-4.2 21-.3l1.8 1c10.7 6.3 24.4 2.6 30.5-8.2L555 403.1c5.7-10.2 2.3-23-7.8-29c-7.3-4.3-11.2-12.6-11.2-21s3.9-16.7 11.2-21c10-5.9 13.5-18.8 7.8-29l-26.4-46.9c-6.1-10.8-19.9-14.5-30.5-8.2l-1.8 1c-6.5 3.8-14.5 3.4-21-.3c-6.5-3.7-11.1-10.4-11.1-18l0-1.6c0-11.8-9.6-21.4-21.4-21.4zM416.1 409.1a56 56 0 1 0 0-112 56 56 0 1 0 0 112zm-24-56a24 24 0 1 1 48.1 0 24 24 0 1 1 -48.1 0z"/>
    </symbol>

    <!-- Ticket Icon -->
    <symbol id="ticket-light" fill="currentColor" viewBox="0 0 512 512">
        <path d="M64 64C28.7 64 0 92.7 0 128l0 66c0 7.3 4.9 13.7 12 15.5c20.7 5.3 36 24.1 36 46.5s-15.3 41.2-36 46.5C4.9 304.3 0 310.7 0 318l0 66c0 35.3 28.7 64 64 64l448 0c35.3 0 64-28.7 64-64l0-66c0-7.3-4.9-13.7-12-15.5c-20.7-5.3-36-24.1-36-46.5s15.3-41.2 36-46.5c7.1-1.8 12-8.2 12-15.5l0-66c0-35.3-28.7-64-64-64L64 64zM32 128c0-17.7 14.3-32 32-32l448 0c17.7 0 32 14.3 32 32l0 54.7c-28.2 12.3-48 40.5-48 73.3s19.8 61 48 73.3l0 54.7c0 17.7-14.3 32-32 32L64 416c-17.7 0-32-14.3-32-32l0-54.7C60.2 317 80 288.8 80 256s-19.8-61-48-73.3L32 128zm128 64l256 0 0 128-256 0 0-128zm-32 0l0 128c0 17.7 14.3 32 32 32l256 0c17.7 0 32-14.3 32-32l0-128c0-17.7-14.3-32-32-32l-256 0c-17.7 0-32 14.3-32 32z"/>
    </symbol>

    <!-- Door Open Icon -->
    <symbol id="dooropen-light" fill="currentColor" viewBox="0 0 512 512">
        <path d="M288 480L96 480 96 86.2c0-7.5 5.1-13.9 12.4-15.6l166-38.3c.8-.2 1.7-.3 2.5-.3C283 32 288 37 288 43.1L288 480zm32 0l0-436.9C320 19.3 300.7 0 276.9 0c-3.3 0-6.5 .4-9.7 1.1l-166 38.3C79.4 44.4 64 63.8 64 86.2L64 480l-48 0c-8.8 0-16 7.2-16 16s7.2 16 16 16l48 0 16 0 16 0 192 0 32 0 0-32zM232 288c13.2 0 24-14.4 24-32s-10.8-32-24-32s-24 14.4-24 32s10.7 32 24 32zM464 64L352 64l0 32 112 0c8.8 0 16 7.2 16 16l0 384c0 8.8 7.2 16 16 16l64 0c8.8 0 16-7.2 16-16s-7.2-16-16-16l-48 0 0-368c0-26.5-21.5-48-48-48z"/>
    </symbol>
</svg>

